<svg xmlns="http://www.w3.org/2000/svg" xmlns:xlink="http://www.w3.org/1999/xlink" width="500" zoomAndPan="magnify" viewBox="0 0 375 374.999991" height="500" preserveAspectRatio="xMidYMid meet" version="1.0"><defs><clipPath id="43d9af98ee"><path d="M 131.980469 125.703125 L 240.316406 125.703125 L 240.316406 219.714844 L 131.980469 219.714844 Z M 131.980469 125.703125 " clip-rule="nonzero"/></clipPath><clipPath id="ce44516e7f"><path d="M 160.320312 125.703125 L 240.269531 125.703125 L 211.933594 219.714844 L 131.980469 219.714844 Z M 160.320312 125.703125 " clip-rule="nonzero"/></clipPath><clipPath id="b8c1b00c02"><path d="M 0.980469 0.703125 L 109.316406 0.703125 L 109.316406 94.714844 L 0.980469 94.714844 Z M 0.980469 0.703125 " clip-rule="nonzero"/></clipPath><clipPath id="f824b2469f"><path d="M 29.320312 0.703125 L 109.269531 0.703125 L 80.933594 94.714844 L 0.980469 94.714844 Z M 29.320312 0.703125 " clip-rule="nonzero"/></clipPath><clipPath id="c4eec958ae"><rect x="0" width="110" y="0" height="95"/></clipPath></defs><g clip-path="url(#43d9af98ee)"><g clip-path="url(#ce44516e7f)"><g transform="matrix(1, 0, 0, 1, 131, 125)"><g clip-path="url(#c4eec958ae)"><g clip-path="url(#b8c1b00c02)"><g clip-path="url(#f824b2469f)"><path fill="#ffffff" d="M 0.980469 0.703125 L 109.316406 0.703125 L 109.316406 94.714844 L 0.980469 94.714844 Z M 0.980469 0.703125 " fill-opacity="1" fill-rule="nonzero"/></g></g></g></g></g></g></svg>