<svg xmlns="http://www.w3.org/2000/svg" xmlns:xlink="http://www.w3.org/1999/xlink" width="500" zoomAndPan="magnify" viewBox="0 0 375 374.999991" height="500" preserveAspectRatio="xMidYMid meet" version="1.0"><defs><filter x="0%" y="0%" width="100%" height="100%" id="7bfb62d02e"><feColorMatrix values="0 0 0 0 1 0 0 0 0 1 0 0 0 0 1 0 0 0 1 0" color-interpolation-filters="sRGB"/></filter><g/><mask id="5f005c1782"><g filter="url(#7bfb62d02e)"><rect x="-37.5" width="450" fill="#000000" y="-37.499999" height="449.999989" fill-opacity="0.43"/></g></mask><clipPath id="6bd447fae2"><path d="M 0.316406 0.511719 L 107 0.511719 L 107 96.03125 L 0.316406 96.03125 Z M 0.316406 0.511719 " clip-rule="nonzero"/></clipPath><clipPath id="19d10ad54f"><path d="M 28.441406 0.511719 L 106.683594 0.511719 L 78.558594 96.03125 L 0.316406 96.03125 Z M 28.441406 0.511719 " clip-rule="nonzero"/></clipPath><clipPath id="25bc64be66"><path d="M 0.316406 0.511719 L 106.71875 0.511719 L 106.71875 96.03125 L 0.316406 96.03125 Z M 0.316406 0.511719 " clip-rule="nonzero"/></clipPath><clipPath id="65fe42bb98"><path d="M 28.441406 0.511719 L 106.683594 0.511719 L 78.558594 96.03125 L 0.316406 96.03125 Z M 28.441406 0.511719 " clip-rule="nonzero"/></clipPath><clipPath id="f404740809"><rect x="0" width="107" y="0" height="97"/></clipPath><clipPath id="674d0fcfd4"><rect x="0" width="108" y="0" height="97"/></clipPath><clipPath id="f9795e0177"><path d="M 130.414062 124.511719 L 237 124.511719 L 237 220.03125 L 130.414062 220.03125 Z M 130.414062 124.511719 " clip-rule="nonzero"/></clipPath><clipPath id="4fd5f9411c"><path d="M 158.539062 124.511719 L 236.785156 124.511719 L 208.660156 220.03125 L 130.414062 220.03125 Z M 158.539062 124.511719 " clip-rule="nonzero"/></clipPath><clipPath id="61cc7ebf56"><path d="M 0.414062 0.511719 L 106.878906 0.511719 L 106.878906 96.03125 L 0.414062 96.03125 Z M 0.414062 0.511719 " clip-rule="nonzero"/></clipPath><clipPath id="6af27669e2"><path d="M 28.539062 0.511719 L 106.785156 0.511719 L 78.660156 96.03125 L 0.414062 96.03125 Z M 28.539062 0.511719 " clip-rule="nonzero"/></clipPath><clipPath id="50f9159e72"><rect x="0" width="107" y="0" height="97"/></clipPath><clipPath id="65946395fe"><rect x="0" width="119" y="0" height="84"/></clipPath></defs><g fill="#4b58ff" fill-opacity="1"><g transform="translate(207.40924, 218.722486)"><g><path d="M 14.796875 0 L 14.796875 -37.640625 L 1.5625 -37.640625 L 1.5625 -45.421875 L 36.59375 -45.421875 L 36.59375 -37.640625 L 23.359375 -37.640625 L 23.359375 0 Z M 14.796875 0 "/></g></g></g><g fill="#4b58ff" fill-opacity="1"><g transform="translate(245.30304, 218.722486)"><g><path d="M 12.71875 0 L 1.171875 -45.421875 L 10 -45.421875 L 19.59375 -5.515625 L 20.5 -5.515625 L 30.109375 -45.421875 L 38.9375 -45.421875 L 27.390625 0 Z M 12.71875 0 "/></g></g></g><g mask="url(#5f005c1782)"><g transform="matrix(1, 0, 0, 1, 134, 124)"><g clip-path="url(#674d0fcfd4)"><g clip-path="url(#6bd447fae2)"><g clip-path="url(#19d10ad54f)"><g transform="matrix(1, 0, 0, 1, 0.000000000000028422, 0)"><g clip-path="url(#f404740809)"><g clip-path="url(#25bc64be66)"><g clip-path="url(#65fe42bb98)"><path fill="#01185e" d="M 0.316406 0.511719 L 106.652344 0.511719 L 106.652344 96.03125 L 0.316406 96.03125 Z M 0.316406 0.511719 " fill-opacity="1" fill-rule="nonzero"/></g></g></g></g></g></g></g></g></g><g clip-path="url(#f9795e0177)"><g clip-path="url(#4fd5f9411c)"><g transform="matrix(1, 0, 0, 1, 130, 124)"><g clip-path="url(#50f9159e72)"><g clip-path="url(#61cc7ebf56)"><g clip-path="url(#6af27669e2)"><path fill="#4b58ff" d="M 0.414062 0.511719 L 106.753906 0.511719 L 106.753906 96.03125 L 0.414062 96.03125 Z M 0.414062 0.511719 " fill-opacity="1" fill-rule="nonzero"/></g></g></g></g></g></g><g transform="matrix(1, 0, 0, 1, 52, 121)"><g clip-path="url(#65946395fe)"><g fill="#ffffff" fill-opacity="1"><g transform="translate(0.257317, 64.598973)"><g><path d="M 14.796875 0 L 14.796875 -37.640625 L 1.5625 -37.640625 L 1.5625 -45.421875 L 36.59375 -45.421875 L 36.59375 -37.640625 L 23.359375 -37.640625 L 23.359375 0 Z M 14.796875 0 "/></g></g></g><g fill="#ffffff" fill-opacity="1"><g transform="translate(38.15378, 64.598973)"><g><path d="M 4.28125 0 L 4.28125 -45.421875 L 24.015625 -45.421875 C 26.867188 -45.421875 29.351562 -44.921875 31.46875 -43.921875 C 33.59375 -42.929688 35.238281 -41.523438 36.40625 -39.703125 C 37.570312 -37.890625 38.15625 -35.75 38.15625 -33.28125 L 38.15625 -32.515625 C 38.15625 -29.785156 37.503906 -27.578125 36.203125 -25.890625 C 34.910156 -24.203125 33.3125 -22.96875 31.40625 -22.1875 L 31.40625 -21.03125 C 33.132812 -20.9375 34.472656 -20.335938 35.421875 -19.234375 C 36.378906 -18.128906 36.859375 -16.671875 36.859375 -14.859375 L 36.859375 0 L 28.296875 0 L 28.296875 -13.625 C 28.296875 -14.664062 28.023438 -15.507812 27.484375 -16.15625 C 26.941406 -16.800781 26.039062 -17.125 24.78125 -17.125 L 12.84375 -17.125 L 12.84375 0 Z M 12.84375 -24.921875 L 23.09375 -24.921875 C 25.132812 -24.921875 26.726562 -25.472656 27.875 -26.578125 C 29.019531 -27.679688 29.59375 -29.140625 29.59375 -30.953125 L 29.59375 -31.609375 C 29.59375 -33.421875 29.03125 -34.878906 27.90625 -35.984375 C 26.78125 -37.085938 25.175781 -37.640625 23.09375 -37.640625 L 12.84375 -37.640625 Z M 12.84375 -24.921875 "/></g></g></g><g fill="#ffffff" fill-opacity="1"><g transform="translate(78.905461, 64.598973)"><g><path d="M 20.046875 0.90625 C 16.546875 0.90625 13.453125 0.28125 10.765625 -0.96875 C 8.085938 -2.226562 5.988281 -4.023438 4.46875 -6.359375 C 2.957031 -8.691406 2.203125 -11.503906 2.203125 -14.796875 L 2.203125 -16.609375 L 10.640625 -16.609375 L 10.640625 -14.796875 C 10.640625 -12.066406 11.484375 -10.019531 13.171875 -8.65625 C 14.859375 -7.300781 17.148438 -6.625 20.046875 -6.625 C 22.992188 -6.625 25.191406 -7.207031 26.640625 -8.375 C 28.085938 -9.539062 28.8125 -11.03125 28.8125 -12.84375 C 28.8125 -14.101562 28.453125 -15.117188 27.734375 -15.890625 C 27.023438 -16.671875 25.988281 -17.3125 24.625 -17.8125 C 23.257812 -18.3125 21.601562 -18.773438 19.65625 -19.203125 L 18.171875 -19.53125 C 15.054688 -20.226562 12.382812 -21.101562 10.15625 -22.15625 C 7.925781 -23.21875 6.21875 -24.613281 5.03125 -26.34375 C 3.84375 -28.070312 3.25 -30.320312 3.25 -33.09375 C 3.25 -35.863281 3.90625 -38.234375 5.21875 -40.203125 C 6.539062 -42.171875 8.398438 -43.679688 10.796875 -44.734375 C 13.203125 -45.796875 16.023438 -46.328125 19.265625 -46.328125 C 22.515625 -46.328125 25.40625 -45.773438 27.9375 -44.671875 C 30.46875 -43.566406 32.457031 -41.921875 33.90625 -39.734375 C 35.351562 -37.554688 36.078125 -34.820312 36.078125 -31.53125 L 36.078125 -29.59375 L 27.640625 -29.59375 L 27.640625 -31.53125 C 27.640625 -33.257812 27.300781 -34.65625 26.625 -35.71875 C 25.957031 -36.78125 25 -37.554688 23.75 -38.046875 C 22.5 -38.546875 21.003906 -38.796875 19.265625 -38.796875 C 16.671875 -38.796875 14.757812 -38.3125 13.53125 -37.34375 C 12.300781 -36.375 11.6875 -35.046875 11.6875 -33.359375 C 11.6875 -32.234375 11.976562 -31.28125 12.5625 -30.5 C 13.144531 -29.71875 14.019531 -29.066406 15.1875 -28.546875 C 16.351562 -28.023438 17.84375 -27.570312 19.65625 -27.1875 L 21.15625 -26.859375 C 24.394531 -26.171875 27.210938 -25.285156 29.609375 -24.203125 C 32.015625 -23.117188 33.890625 -21.691406 35.234375 -19.921875 C 36.578125 -18.148438 37.25 -15.878906 37.25 -13.109375 C 37.25 -10.335938 36.546875 -7.898438 35.140625 -5.796875 C 33.734375 -3.703125 31.742188 -2.0625 29.171875 -0.875 C 26.597656 0.3125 23.554688 0.90625 20.046875 0.90625 Z M 20.046875 0.90625 "/></g></g></g></g></g></svg>