<svg xmlns="http://www.w3.org/2000/svg" xmlns:xlink="http://www.w3.org/1999/xlink" width="500" zoomAndPan="magnify" viewBox="0 0 375 374.999991" height="500" preserveAspectRatio="xMidYMid meet" version="1.0"><defs><filter x="0%" y="0%" width="100%" height="100%" id="c2722c446e"><feColorMatrix values="0 0 0 0 1 0 0 0 0 1 0 0 0 0 1 0 0 0 1 0" color-interpolation-filters="sRGB"/></filter><g/><mask id="1a025b534b"><g filter="url(#c2722c446e)"><rect x="-37.5" width="450" fill="#000000" y="-37.499999" height="449.999989" fill-opacity="0.43"/></g></mask><clipPath id="d9edcb60b1"><path d="M 0.316406 0.511719 L 107 0.511719 L 107 96.03125 L 0.316406 96.03125 Z M 0.316406 0.511719 " clip-rule="nonzero"/></clipPath><clipPath id="dab9cbacff"><path d="M 28.441406 0.511719 L 106.683594 0.511719 L 78.558594 96.03125 L 0.316406 96.03125 Z M 28.441406 0.511719 " clip-rule="nonzero"/></clipPath><clipPath id="e1153d87cf"><path d="M 0.316406 0.511719 L 106.71875 0.511719 L 106.71875 96.03125 L 0.316406 96.03125 Z M 0.316406 0.511719 " clip-rule="nonzero"/></clipPath><clipPath id="5b48812626"><path d="M 28.441406 0.511719 L 106.683594 0.511719 L 78.558594 96.03125 L 0.316406 96.03125 Z M 28.441406 0.511719 " clip-rule="nonzero"/></clipPath><clipPath id="a13e491663"><rect x="0" width="107" y="0" height="97"/></clipPath><clipPath id="3216d13746"><rect x="0" width="108" y="0" height="97"/></clipPath><clipPath id="0745935f1a"><path d="M 130.414062 124.511719 L 237 124.511719 L 237 220.03125 L 130.414062 220.03125 Z M 130.414062 124.511719 " clip-rule="nonzero"/></clipPath><clipPath id="3559417bd4"><path d="M 158.539062 124.511719 L 236.785156 124.511719 L 208.660156 220.03125 L 130.414062 220.03125 Z M 158.539062 124.511719 " clip-rule="nonzero"/></clipPath><clipPath id="0fa47368cd"><path d="M 0.414062 0.511719 L 106.878906 0.511719 L 106.878906 96.03125 L 0.414062 96.03125 Z M 0.414062 0.511719 " clip-rule="nonzero"/></clipPath><clipPath id="b3a825bece"><path d="M 28.539062 0.511719 L 106.785156 0.511719 L 78.660156 96.03125 L 0.414062 96.03125 Z M 28.539062 0.511719 " clip-rule="nonzero"/></clipPath><clipPath id="242a6a9335"><rect x="0" width="107" y="0" height="97"/></clipPath><clipPath id="453f01ed33"><rect x="0" width="119" y="0" height="84"/></clipPath></defs><g fill="#ff751f" fill-opacity="1"><g transform="translate(206.289469, 218.758886)"><g><path d="M 3.421875 0 L 3.421875 -36.328125 L 19.203125 -36.328125 C 21.484375 -36.328125 23.472656 -35.929688 25.171875 -35.140625 C 26.867188 -34.347656 28.179688 -33.222656 29.109375 -31.765625 C 30.046875 -30.316406 30.515625 -28.601562 30.515625 -26.625 L 30.515625 -26 C 30.515625 -23.820312 29.992188 -22.054688 28.953125 -20.703125 C 27.921875 -19.359375 26.644531 -18.375 25.125 -17.75 L 25.125 -16.8125 C 26.507812 -16.75 27.582031 -16.273438 28.34375 -15.390625 C 29.101562 -14.503906 29.484375 -13.335938 29.484375 -11.890625 L 29.484375 0 L 22.625 0 L 22.625 -10.90625 C 22.625 -11.726562 22.40625 -12.398438 21.96875 -12.921875 C 21.539062 -13.441406 20.828125 -13.703125 19.828125 -13.703125 L 10.28125 -13.703125 L 10.28125 0 Z M 10.28125 -19.9375 L 18.484375 -19.9375 C 20.109375 -19.9375 21.378906 -20.375 22.296875 -21.25 C 23.210938 -22.132812 23.671875 -23.304688 23.671875 -24.765625 L 23.671875 -25.28125 C 23.671875 -26.726562 23.21875 -27.894531 22.3125 -28.78125 C 21.414062 -29.664062 20.140625 -30.109375 18.484375 -30.109375 L 10.28125 -30.109375 Z M 10.28125 -19.9375 "/></g></g></g><g fill="#ff751f" fill-opacity="1"><g transform="translate(238.87669, 218.758886)"><g><path d="M 0.9375 0 L 10.484375 -36.328125 L 22.421875 -36.328125 L 31.96875 0 L 24.921875 0 L 22.9375 -8 L 9.96875 -8 L 8 0 Z M 11.578125 -14.328125 L 21.328125 -14.328125 L 16.921875 -32.03125 L 15.984375 -32.03125 Z M 11.578125 -14.328125 "/></g></g></g><g fill="#ff751f" fill-opacity="1"><g transform="translate(271.567685, 218.758886)"><g><path d="M 2.390625 0 L 2.390625 -6.015625 L 7.15625 -6.015625 L 7.15625 -30.3125 L 2.390625 -30.3125 L 2.390625 -36.328125 L 17.34375 -36.328125 C 22.21875 -36.328125 25.925781 -35.085938 28.46875 -32.609375 C 31.007812 -30.140625 32.28125 -26.46875 32.28125 -21.59375 L 32.28125 -14.734375 C 32.28125 -9.859375 31.007812 -6.179688 28.46875 -3.703125 C 25.925781 -1.234375 22.21875 0 17.34375 0 Z M 14.015625 -6.234375 L 17.4375 -6.234375 C 20.207031 -6.234375 22.234375 -6.957031 23.515625 -8.40625 C 24.796875 -9.863281 25.4375 -11.90625 25.4375 -14.53125 L 25.4375 -21.796875 C 25.4375 -24.460938 24.796875 -26.515625 23.515625 -27.953125 C 22.234375 -29.390625 20.207031 -30.109375 17.4375 -30.109375 L 14.015625 -30.109375 Z M 14.015625 -6.234375 "/></g></g></g><g fill="#ff751f" fill-opacity="1"><g transform="translate(305.919185, 218.758886)"><g><path d="M 3.421875 0 L 3.421875 -36.328125 L 10.28125 -36.328125 L 10.28125 0 Z M 3.421875 0 "/></g></g></g><g fill="#ff751f" fill-opacity="1"><g transform="translate(319.410681, 218.758886)"><g><path d="M 17.546875 0.734375 C 12.972656 0.734375 9.335938 -0.519531 6.640625 -3.03125 C 3.941406 -5.539062 2.59375 -9.132812 2.59375 -13.8125 L 2.59375 -22.53125 C 2.59375 -27.195312 3.941406 -30.785156 6.640625 -33.296875 C 9.335938 -35.804688 12.972656 -37.0625 17.546875 -37.0625 C 22.109375 -37.0625 25.738281 -35.804688 28.4375 -33.296875 C 31.144531 -30.785156 32.5 -27.195312 32.5 -22.53125 L 32.5 -13.8125 C 32.5 -9.132812 31.144531 -5.539062 28.4375 -3.03125 C 25.738281 -0.519531 22.109375 0.734375 17.546875 0.734375 Z M 17.546875 -5.390625 C 20.109375 -5.390625 22.097656 -6.132812 23.515625 -7.625 C 24.929688 -9.113281 25.640625 -11.101562 25.640625 -13.59375 L 25.640625 -22.734375 C 25.640625 -25.222656 24.929688 -27.210938 23.515625 -28.703125 C 22.097656 -30.191406 20.109375 -30.9375 17.546875 -30.9375 C 15.015625 -30.9375 13.03125 -30.191406 11.59375 -28.703125 C 10.164062 -27.210938 9.453125 -25.222656 9.453125 -22.734375 L 9.453125 -13.59375 C 9.453125 -11.101562 10.164062 -9.113281 11.59375 -7.625 C 13.03125 -6.132812 15.015625 -5.390625 17.546875 -5.390625 Z M 17.546875 -5.390625 "/></g></g></g><g mask="url(#1a025b534b)"><g transform="matrix(1, 0, 0, 1, 134, 124)"><g clip-path="url(#3216d13746)"><g clip-path="url(#d9edcb60b1)"><g clip-path="url(#dab9cbacff)"><g transform="matrix(1, 0, 0, 1, 0.000000000000028422, 0)"><g clip-path="url(#a13e491663)"><g clip-path="url(#e1153d87cf)"><g clip-path="url(#5b48812626)"><path fill="#ff914d" d="M 0.316406 0.511719 L 106.652344 0.511719 L 106.652344 96.03125 L 0.316406 96.03125 Z M 0.316406 0.511719 " fill-opacity="1" fill-rule="nonzero"/></g></g></g></g></g></g></g></g></g><g clip-path="url(#0745935f1a)"><g clip-path="url(#3559417bd4)"><g transform="matrix(1, 0, 0, 1, 130, 124)"><g clip-path="url(#242a6a9335)"><g clip-path="url(#0fa47368cd)"><g clip-path="url(#b3a825bece)"><path fill="#ff751f" d="M 0.414062 0.511719 L 106.753906 0.511719 L 106.753906 96.03125 L 0.414062 96.03125 Z M 0.414062 0.511719 " fill-opacity="1" fill-rule="nonzero"/></g></g></g></g></g></g><g transform="matrix(1, 0, 0, 1, 52, 121)"><g clip-path="url(#453f01ed33)"><g fill="#ffffff" fill-opacity="1"><g transform="translate(0.257317, 64.598973)"><g><path d="M 14.796875 0 L 14.796875 -37.640625 L 1.5625 -37.640625 L 1.5625 -45.421875 L 36.59375 -45.421875 L 36.59375 -37.640625 L 23.359375 -37.640625 L 23.359375 0 Z M 14.796875 0 "/></g></g></g><g fill="#ffffff" fill-opacity="1"><g transform="translate(38.15378, 64.598973)"><g><path d="M 4.28125 0 L 4.28125 -45.421875 L 24.015625 -45.421875 C 26.867188 -45.421875 29.351562 -44.921875 31.46875 -43.921875 C 33.59375 -42.929688 35.238281 -41.523438 36.40625 -39.703125 C 37.570312 -37.890625 38.15625 -35.75 38.15625 -33.28125 L 38.15625 -32.515625 C 38.15625 -29.785156 37.503906 -27.578125 36.203125 -25.890625 C 34.910156 -24.203125 33.3125 -22.96875 31.40625 -22.1875 L 31.40625 -21.03125 C 33.132812 -20.9375 34.472656 -20.335938 35.421875 -19.234375 C 36.378906 -18.128906 36.859375 -16.671875 36.859375 -14.859375 L 36.859375 0 L 28.296875 0 L 28.296875 -13.625 C 28.296875 -14.664062 28.023438 -15.507812 27.484375 -16.15625 C 26.941406 -16.800781 26.039062 -17.125 24.78125 -17.125 L 12.84375 -17.125 L 12.84375 0 Z M 12.84375 -24.921875 L 23.09375 -24.921875 C 25.132812 -24.921875 26.726562 -25.472656 27.875 -26.578125 C 29.019531 -27.679688 29.59375 -29.140625 29.59375 -30.953125 L 29.59375 -31.609375 C 29.59375 -33.421875 29.03125 -34.878906 27.90625 -35.984375 C 26.78125 -37.085938 25.175781 -37.640625 23.09375 -37.640625 L 12.84375 -37.640625 Z M 12.84375 -24.921875 "/></g></g></g><g fill="#ffffff" fill-opacity="1"><g transform="translate(78.905461, 64.598973)"><g><path d="M 20.046875 0.90625 C 16.546875 0.90625 13.453125 0.28125 10.765625 -0.96875 C 8.085938 -2.226562 5.988281 -4.023438 4.46875 -6.359375 C 2.957031 -8.691406 2.203125 -11.503906 2.203125 -14.796875 L 2.203125 -16.609375 L 10.640625 -16.609375 L 10.640625 -14.796875 C 10.640625 -12.066406 11.484375 -10.019531 13.171875 -8.65625 C 14.859375 -7.300781 17.148438 -6.625 20.046875 -6.625 C 22.992188 -6.625 25.191406 -7.207031 26.640625 -8.375 C 28.085938 -9.539062 28.8125 -11.03125 28.8125 -12.84375 C 28.8125 -14.101562 28.453125 -15.117188 27.734375 -15.890625 C 27.023438 -16.671875 25.988281 -17.3125 24.625 -17.8125 C 23.257812 -18.3125 21.601562 -18.773438 19.65625 -19.203125 L 18.171875 -19.53125 C 15.054688 -20.226562 12.382812 -21.101562 10.15625 -22.15625 C 7.925781 -23.21875 6.21875 -24.613281 5.03125 -26.34375 C 3.84375 -28.070312 3.25 -30.320312 3.25 -33.09375 C 3.25 -35.863281 3.90625 -38.234375 5.21875 -40.203125 C 6.539062 -42.171875 8.398438 -43.679688 10.796875 -44.734375 C 13.203125 -45.796875 16.023438 -46.328125 19.265625 -46.328125 C 22.515625 -46.328125 25.40625 -45.773438 27.9375 -44.671875 C 30.46875 -43.566406 32.457031 -41.921875 33.90625 -39.734375 C 35.351562 -37.554688 36.078125 -34.820312 36.078125 -31.53125 L 36.078125 -29.59375 L 27.640625 -29.59375 L 27.640625 -31.53125 C 27.640625 -33.257812 27.300781 -34.65625 26.625 -35.71875 C 25.957031 -36.78125 25 -37.554688 23.75 -38.046875 C 22.5 -38.546875 21.003906 -38.796875 19.265625 -38.796875 C 16.671875 -38.796875 14.757812 -38.3125 13.53125 -37.34375 C 12.300781 -36.375 11.6875 -35.046875 11.6875 -33.359375 C 11.6875 -32.234375 11.976562 -31.28125 12.5625 -30.5 C 13.144531 -29.71875 14.019531 -29.066406 15.1875 -28.546875 C 16.351562 -28.023438 17.84375 -27.570312 19.65625 -27.1875 L 21.15625 -26.859375 C 24.394531 -26.171875 27.210938 -25.285156 29.609375 -24.203125 C 32.015625 -23.117188 33.890625 -21.691406 35.234375 -19.921875 C 36.578125 -18.148438 37.25 -15.878906 37.25 -13.109375 C 37.25 -10.335938 36.546875 -7.898438 35.140625 -5.796875 C 33.734375 -3.703125 31.742188 -2.0625 29.171875 -0.875 C 26.597656 0.3125 23.554688 0.90625 20.046875 0.90625 Z M 20.046875 0.90625 "/></g></g></g></g></g></svg>