<svg xmlns="http://www.w3.org/2000/svg" xmlns:xlink="http://www.w3.org/1999/xlink" width="500" zoomAndPan="magnify" viewBox="0 0 375 374.999991" height="500" preserveAspectRatio="xMidYMid meet" version="1.0"><defs><filter x="0%" y="0%" width="100%" height="100%" id="f1a256ab90"><feColorMatrix values="0 0 0 0 1 0 0 0 0 1 0 0 0 0 1 0 0 0 1 0" color-interpolation-filters="sRGB"/></filter><g/><mask id="68d19c6551"><g filter="url(#f1a256ab90)"><rect x="-37.5" width="450" fill="#000000" y="-37.499999" height="449.999989" fill-opacity="0.43"/></g></mask><clipPath id="7e9bbf431a"><path d="M 0.316406 0.511719 L 107 0.511719 L 107 96.03125 L 0.316406 96.03125 Z M 0.316406 0.511719 " clip-rule="nonzero"/></clipPath><clipPath id="fc168a2878"><path d="M 28.441406 0.511719 L 106.683594 0.511719 L 78.558594 96.03125 L 0.316406 96.03125 Z M 28.441406 0.511719 " clip-rule="nonzero"/></clipPath><clipPath id="e4301e4d58"><path d="M 0.316406 0.511719 L 106.71875 0.511719 L 106.71875 96.03125 L 0.316406 96.03125 Z M 0.316406 0.511719 " clip-rule="nonzero"/></clipPath><clipPath id="5d75d0e6ed"><path d="M 28.441406 0.511719 L 106.683594 0.511719 L 78.558594 96.03125 L 0.316406 96.03125 Z M 28.441406 0.511719 " clip-rule="nonzero"/></clipPath><clipPath id="7560dc926e"><rect x="0" width="107" y="0" height="97"/></clipPath><clipPath id="61c3083bb6"><rect x="0" width="108" y="0" height="97"/></clipPath><clipPath id="40783a0aed"><path d="M 130.414062 124.511719 L 237 124.511719 L 237 220.03125 L 130.414062 220.03125 Z M 130.414062 124.511719 " clip-rule="nonzero"/></clipPath><clipPath id="a288a9d5ce"><path d="M 158.539062 124.511719 L 236.785156 124.511719 L 208.660156 220.03125 L 130.414062 220.03125 Z M 158.539062 124.511719 " clip-rule="nonzero"/></clipPath><clipPath id="017f38d1c0"><path d="M 0.414062 0.511719 L 106.753906 0.511719 L 106.753906 96.03125 L 0.414062 96.03125 Z M 0.414062 0.511719 " clip-rule="nonzero"/></clipPath><clipPath id="96a43f5605"><path d="M 28.539062 0.511719 L 106.785156 0.511719 L 78.660156 96.03125 L 0.414062 96.03125 Z M 28.539062 0.511719 " clip-rule="nonzero"/></clipPath><linearGradient x1="142.542007" gradientTransform="matrix(0.373122, 0, 0, 0.373122, 0.413277, 0.510671)" y1="0" x2="142.542007" gradientUnits="userSpaceOnUse" y2="256" id="85a204d986"><stop stop-opacity="1" stop-color="rgb(45.098877%, 9.799194%, 9.799194%)" offset="0"/><stop stop-opacity="1" stop-color="rgb(45.272827%, 9.82666%, 9.82666%)" offset="0.0078125"/><stop stop-opacity="1" stop-color="rgb(45.622253%, 9.881592%, 9.881592%)" offset="0.015625"/><stop stop-opacity="1" stop-color="rgb(45.97168%, 9.936523%, 9.936523%)" offset="0.0234375"/><stop stop-opacity="1" stop-color="rgb(46.321106%, 9.991455%, 9.991455%)" offset="0.03125"/><stop stop-opacity="1" stop-color="rgb(46.670532%, 10.047913%, 10.047913%)" offset="0.0390625"/><stop stop-opacity="1" stop-color="rgb(47.019958%, 10.102844%, 10.102844%)" offset="0.046875"/><stop stop-opacity="1" stop-color="rgb(47.367859%, 10.157776%, 10.157776%)" offset="0.0546875"/><stop stop-opacity="1" stop-color="rgb(47.717285%, 10.212708%, 10.212708%)" offset="0.0625"/><stop stop-opacity="1" stop-color="rgb(48.066711%, 10.267639%, 10.267639%)" offset="0.0703125"/><stop stop-opacity="1" stop-color="rgb(48.416138%, 10.322571%, 10.322571%)" offset="0.078125"/><stop stop-opacity="1" stop-color="rgb(48.765564%, 10.379028%, 10.379028%)" offset="0.0859375"/><stop stop-opacity="1" stop-color="rgb(49.11499%, 10.43396%, 10.43396%)" offset="0.09375"/><stop stop-opacity="1" stop-color="rgb(49.464417%, 10.488892%, 10.488892%)" offset="0.101562"/><stop stop-opacity="1" stop-color="rgb(49.812317%, 10.543823%, 10.543823%)" offset="0.109375"/><stop stop-opacity="1" stop-color="rgb(50.161743%, 10.598755%, 10.598755%)" offset="0.117188"/><stop stop-opacity="1" stop-color="rgb(50.511169%, 10.653687%, 10.653687%)" offset="0.125"/><stop stop-opacity="1" stop-color="rgb(50.860596%, 10.708618%, 10.708618%)" offset="0.132812"/><stop stop-opacity="1" stop-color="rgb(51.210022%, 10.765076%, 10.765076%)" offset="0.140625"/><stop stop-opacity="1" stop-color="rgb(51.559448%, 10.820007%, 10.820007%)" offset="0.148438"/><stop stop-opacity="1" stop-color="rgb(51.908875%, 10.874939%, 10.874939%)" offset="0.15625"/><stop stop-opacity="1" stop-color="rgb(52.258301%, 10.929871%, 10.929871%)" offset="0.164062"/><stop stop-opacity="1" stop-color="rgb(52.606201%, 10.984802%, 10.984802%)" offset="0.171875"/><stop stop-opacity="1" stop-color="rgb(52.955627%, 11.039734%, 11.039734%)" offset="0.179688"/><stop stop-opacity="1" stop-color="rgb(53.305054%, 11.094666%, 11.094666%)" offset="0.1875"/><stop stop-opacity="1" stop-color="rgb(53.65448%, 11.151123%, 11.151123%)" offset="0.195312"/><stop stop-opacity="1" stop-color="rgb(54.003906%, 11.206055%, 11.206055%)" offset="0.203125"/><stop stop-opacity="1" stop-color="rgb(54.353333%, 11.260986%, 11.260986%)" offset="0.210938"/><stop stop-opacity="1" stop-color="rgb(54.702759%, 11.315918%, 11.315918%)" offset="0.21875"/><stop stop-opacity="1" stop-color="rgb(55.050659%, 11.37085%, 11.37085%)" offset="0.226562"/><stop stop-opacity="1" stop-color="rgb(55.400085%, 11.425781%, 11.425781%)" offset="0.234375"/><stop stop-opacity="1" stop-color="rgb(55.749512%, 11.480713%, 11.480713%)" offset="0.242188"/><stop stop-opacity="1" stop-color="rgb(56.098938%, 11.53717%, 11.53717%)" offset="0.25"/><stop stop-opacity="1" stop-color="rgb(56.448364%, 11.592102%, 11.592102%)" offset="0.257812"/><stop stop-opacity="1" stop-color="rgb(56.797791%, 11.647034%, 11.647034%)" offset="0.265625"/><stop stop-opacity="1" stop-color="rgb(57.147217%, 11.701965%, 11.701965%)" offset="0.273438"/><stop stop-opacity="1" stop-color="rgb(57.495117%, 11.756897%, 11.756897%)" offset="0.28125"/><stop stop-opacity="1" stop-color="rgb(57.844543%, 11.811829%, 11.811829%)" offset="0.289062"/><stop stop-opacity="1" stop-color="rgb(58.19397%, 11.86676%, 11.86676%)" offset="0.296875"/><stop stop-opacity="1" stop-color="rgb(58.543396%, 11.923218%, 11.923218%)" offset="0.304688"/><stop stop-opacity="1" stop-color="rgb(58.892822%, 11.978149%, 11.978149%)" offset="0.3125"/><stop stop-opacity="1" stop-color="rgb(59.242249%, 12.033081%, 12.033081%)" offset="0.320312"/><stop stop-opacity="1" stop-color="rgb(59.591675%, 12.088013%, 12.088013%)" offset="0.328125"/><stop stop-opacity="1" stop-color="rgb(59.941101%, 12.142944%, 12.142944%)" offset="0.335938"/><stop stop-opacity="1" stop-color="rgb(60.289001%, 12.197876%, 12.197876%)" offset="0.34375"/><stop stop-opacity="1" stop-color="rgb(60.638428%, 12.254333%, 12.254333%)" offset="0.351562"/><stop stop-opacity="1" stop-color="rgb(60.987854%, 12.309265%, 12.309265%)" offset="0.359375"/><stop stop-opacity="1" stop-color="rgb(61.33728%, 12.364197%, 12.364197%)" offset="0.367188"/><stop stop-opacity="1" stop-color="rgb(61.686707%, 12.419128%, 12.419128%)" offset="0.375"/><stop stop-opacity="1" stop-color="rgb(62.036133%, 12.47406%, 12.47406%)" offset="0.382812"/><stop stop-opacity="1" stop-color="rgb(62.385559%, 12.528992%, 12.528992%)" offset="0.390625"/><stop stop-opacity="1" stop-color="rgb(62.733459%, 12.583923%, 12.583923%)" offset="0.398438"/><stop stop-opacity="1" stop-color="rgb(63.082886%, 12.640381%, 12.640381%)" offset="0.40625"/><stop stop-opacity="1" stop-color="rgb(63.432312%, 12.695312%, 12.695312%)" offset="0.414062"/><stop stop-opacity="1" stop-color="rgb(63.781738%, 12.750244%, 12.750244%)" offset="0.421875"/><stop stop-opacity="1" stop-color="rgb(64.131165%, 12.805176%, 12.805176%)" offset="0.429688"/><stop stop-opacity="1" stop-color="rgb(64.480591%, 12.860107%, 12.860107%)" offset="0.4375"/><stop stop-opacity="1" stop-color="rgb(64.830017%, 12.915039%, 12.915039%)" offset="0.445312"/><stop stop-opacity="1" stop-color="rgb(65.177917%, 12.969971%, 12.969971%)" offset="0.453125"/><stop stop-opacity="1" stop-color="rgb(65.527344%, 13.026428%, 13.026428%)" offset="0.460938"/><stop stop-opacity="1" stop-color="rgb(65.87677%, 13.08136%, 13.08136%)" offset="0.46875"/><stop stop-opacity="1" stop-color="rgb(66.226196%, 13.136292%, 13.136292%)" offset="0.476562"/><stop stop-opacity="1" stop-color="rgb(66.575623%, 13.191223%, 13.191223%)" offset="0.484375"/><stop stop-opacity="1" stop-color="rgb(66.925049%, 13.246155%, 13.246155%)" offset="0.492188"/><stop stop-opacity="1" stop-color="rgb(67.274475%, 13.301086%, 13.301086%)" offset="0.5"/><stop stop-opacity="1" stop-color="rgb(67.623901%, 13.356018%, 13.356018%)" offset="0.507812"/><stop stop-opacity="1" stop-color="rgb(67.971802%, 13.412476%, 13.412476%)" offset="0.515625"/><stop stop-opacity="1" stop-color="rgb(68.321228%, 13.467407%, 13.467407%)" offset="0.523438"/><stop stop-opacity="1" stop-color="rgb(68.670654%, 13.522339%, 13.522339%)" offset="0.53125"/><stop stop-opacity="1" stop-color="rgb(69.020081%, 13.577271%, 13.577271%)" offset="0.539062"/><stop stop-opacity="1" stop-color="rgb(69.369507%, 13.632202%, 13.632202%)" offset="0.546875"/><stop stop-opacity="1" stop-color="rgb(69.718933%, 13.687134%, 13.687134%)" offset="0.554688"/><stop stop-opacity="1" stop-color="rgb(70.068359%, 13.742065%, 13.742065%)" offset="0.5625"/><stop stop-opacity="1" stop-color="rgb(70.41626%, 13.798523%, 13.798523%)" offset="0.570312"/><stop stop-opacity="1" stop-color="rgb(70.765686%, 13.853455%, 13.853455%)" offset="0.578125"/><stop stop-opacity="1" stop-color="rgb(71.115112%, 13.908386%, 13.908386%)" offset="0.585938"/><stop stop-opacity="1" stop-color="rgb(71.464539%, 13.963318%, 13.963318%)" offset="0.59375"/><stop stop-opacity="1" stop-color="rgb(71.813965%, 14.01825%, 14.01825%)" offset="0.601562"/><stop stop-opacity="1" stop-color="rgb(72.163391%, 14.073181%, 14.073181%)" offset="0.609375"/><stop stop-opacity="1" stop-color="rgb(72.512817%, 14.129639%, 14.129639%)" offset="0.617188"/><stop stop-opacity="1" stop-color="rgb(72.860718%, 14.18457%, 14.18457%)" offset="0.625"/><stop stop-opacity="1" stop-color="rgb(73.210144%, 14.239502%, 14.239502%)" offset="0.632812"/><stop stop-opacity="1" stop-color="rgb(73.55957%, 14.294434%, 14.294434%)" offset="0.640625"/><stop stop-opacity="1" stop-color="rgb(73.908997%, 14.349365%, 14.349365%)" offset="0.648438"/><stop stop-opacity="1" stop-color="rgb(74.258423%, 14.404297%, 14.404297%)" offset="0.65625"/><stop stop-opacity="1" stop-color="rgb(74.607849%, 14.459229%, 14.459229%)" offset="0.664062"/><stop stop-opacity="1" stop-color="rgb(74.957275%, 14.515686%, 14.515686%)" offset="0.671875"/><stop stop-opacity="1" stop-color="rgb(75.306702%, 14.570618%, 14.570618%)" offset="0.679688"/><stop stop-opacity="1" stop-color="rgb(75.654602%, 14.625549%, 14.625549%)" offset="0.6875"/><stop stop-opacity="1" stop-color="rgb(76.004028%, 14.680481%, 14.680481%)" offset="0.695312"/><stop stop-opacity="1" stop-color="rgb(76.353455%, 14.735413%, 14.735413%)" offset="0.703125"/><stop stop-opacity="1" stop-color="rgb(76.702881%, 14.790344%, 14.790344%)" offset="0.710938"/><stop stop-opacity="1" stop-color="rgb(77.052307%, 14.845276%, 14.845276%)" offset="0.71875"/><stop stop-opacity="1" stop-color="rgb(77.401733%, 14.901733%, 14.901733%)" offset="0.726562"/><stop stop-opacity="1" stop-color="rgb(77.75116%, 14.956665%, 14.956665%)" offset="0.734375"/><stop stop-opacity="1" stop-color="rgb(78.09906%, 15.011597%, 15.011597%)" offset="0.742188"/><stop stop-opacity="1" stop-color="rgb(78.448486%, 15.066528%, 15.066528%)" offset="0.75"/><stop stop-opacity="1" stop-color="rgb(78.797913%, 15.12146%, 15.12146%)" offset="0.757812"/><stop stop-opacity="1" stop-color="rgb(79.147339%, 15.176392%, 15.176392%)" offset="0.765625"/><stop stop-opacity="1" stop-color="rgb(79.496765%, 15.231323%, 15.231323%)" offset="0.773438"/><stop stop-opacity="1" stop-color="rgb(79.846191%, 15.287781%, 15.287781%)" offset="0.78125"/><stop stop-opacity="1" stop-color="rgb(80.195618%, 15.342712%, 15.342712%)" offset="0.789062"/><stop stop-opacity="1" stop-color="rgb(80.545044%, 15.397644%, 15.397644%)" offset="0.796875"/><stop stop-opacity="1" stop-color="rgb(80.892944%, 15.452576%, 15.452576%)" offset="0.804688"/><stop stop-opacity="1" stop-color="rgb(81.242371%, 15.507507%, 15.507507%)" offset="0.8125"/><stop stop-opacity="1" stop-color="rgb(81.591797%, 15.562439%, 15.562439%)" offset="0.820312"/><stop stop-opacity="1" stop-color="rgb(81.941223%, 15.617371%, 15.617371%)" offset="0.828125"/><stop stop-opacity="1" stop-color="rgb(82.290649%, 15.673828%, 15.673828%)" offset="0.835938"/><stop stop-opacity="1" stop-color="rgb(82.640076%, 15.72876%, 15.72876%)" offset="0.84375"/><stop stop-opacity="1" stop-color="rgb(82.989502%, 15.783691%, 15.783691%)" offset="0.851562"/><stop stop-opacity="1" stop-color="rgb(83.337402%, 15.838623%, 15.838623%)" offset="0.859375"/><stop stop-opacity="1" stop-color="rgb(83.686829%, 15.893555%, 15.893555%)" offset="0.867188"/><stop stop-opacity="1" stop-color="rgb(84.036255%, 15.948486%, 15.948486%)" offset="0.875"/><stop stop-opacity="1" stop-color="rgb(84.385681%, 16.004944%, 16.004944%)" offset="0.882812"/><stop stop-opacity="1" stop-color="rgb(84.735107%, 16.059875%, 16.059875%)" offset="0.890625"/><stop stop-opacity="1" stop-color="rgb(85.084534%, 16.114807%, 16.114807%)" offset="0.898438"/><stop stop-opacity="1" stop-color="rgb(85.43396%, 16.169739%, 16.169739%)" offset="0.90625"/><stop stop-opacity="1" stop-color="rgb(85.78186%, 16.22467%, 16.22467%)" offset="0.914062"/><stop stop-opacity="1" stop-color="rgb(86.131287%, 16.279602%, 16.279602%)" offset="0.921875"/><stop stop-opacity="1" stop-color="rgb(86.480713%, 16.334534%, 16.334534%)" offset="0.929688"/><stop stop-opacity="1" stop-color="rgb(86.830139%, 16.390991%, 16.390991%)" offset="0.9375"/><stop stop-opacity="1" stop-color="rgb(87.179565%, 16.445923%, 16.445923%)" offset="0.945312"/><stop stop-opacity="1" stop-color="rgb(87.528992%, 16.500854%, 16.500854%)" offset="0.953125"/><stop stop-opacity="1" stop-color="rgb(87.878418%, 16.555786%, 16.555786%)" offset="0.960938"/><stop stop-opacity="1" stop-color="rgb(88.227844%, 16.610718%, 16.610718%)" offset="0.96875"/><stop stop-opacity="1" stop-color="rgb(88.575745%, 16.665649%, 16.665649%)" offset="0.976562"/><stop stop-opacity="1" stop-color="rgb(88.925171%, 16.720581%, 16.720581%)" offset="0.984375"/><stop stop-opacity="1" stop-color="rgb(89.274597%, 16.777039%, 16.777039%)" offset="0.992188"/><stop stop-opacity="1" stop-color="rgb(89.624023%, 16.83197%, 16.83197%)" offset="1"/></linearGradient><clipPath id="ea218b5c41"><rect x="0" width="107" y="0" height="97"/></clipPath><clipPath id="ff2b8f5a90"><rect x="0" width="119" y="0" height="84"/></clipPath></defs><g fill="#de1928" fill-opacity="1"><g transform="translate(207.911403, 218.722486)"><g><path d="M 4.28125 0 L 4.28125 -45.421875 L 20.578125 -45.421875 L 29.59375 -5.84375 L 30.765625 -5.84375 L 30.765625 -45.421875 L 39.1875 -45.421875 L 39.1875 0 L 22.90625 0 L 13.890625 -39.578125 L 12.71875 -39.578125 L 12.71875 0 Z M 4.28125 0 "/></g></g></g><g fill="#de1928" fill-opacity="1"><g transform="translate(251.125916, 218.722486)"><g><path d="M 4.28125 0 L 4.28125 -45.421875 L 33.484375 -45.421875 L 33.484375 -37.640625 L 12.84375 -37.640625 L 12.84375 -26.796875 L 31.671875 -26.796875 L 31.671875 -19.015625 L 12.84375 -19.015625 L 12.84375 -7.78125 L 33.875 -7.78125 L 33.875 0 Z M 4.28125 0 "/></g></g></g><g fill="#de1928" fill-opacity="1"><g transform="translate(286.813558, 218.722486)"><g><path d="M 14.796875 0 L 14.796875 -37.640625 L 1.5625 -37.640625 L 1.5625 -45.421875 L 36.59375 -45.421875 L 36.59375 -37.640625 L 23.359375 -37.640625 L 23.359375 0 Z M 14.796875 0 "/></g></g></g><g mask="url(#68d19c6551)"><g transform="matrix(1, 0, 0, 1, 134, 124)"><g clip-path="url(#61c3083bb6)"><g clip-path="url(#7e9bbf431a)"><g clip-path="url(#fc168a2878)"><g transform="matrix(1, 0, 0, 1, 0.000000000000028422, 0)"><g clip-path="url(#7560dc926e)"><g clip-path="url(#e4301e4d58)"><g clip-path="url(#5d75d0e6ed)"><path fill="#7a0000" d="M 0.316406 0.511719 L 106.652344 0.511719 L 106.652344 96.03125 L 0.316406 96.03125 Z M 0.316406 0.511719 " fill-opacity="1" fill-rule="nonzero"/></g></g></g></g></g></g></g></g></g><g clip-path="url(#40783a0aed)"><g clip-path="url(#a288a9d5ce)"><g transform="matrix(1, 0, 0, 1, 130, 124)"><g clip-path="url(#ea218b5c41)"><g clip-path="url(#017f38d1c0)"><g clip-path="url(#96a43f5605)"><path fill="url(#85a204d986)" d="M 0.414062 0.511719 L 0.414062 96.03125 L 106.753906 96.03125 L 106.753906 0.511719 Z M 0.414062 0.511719 " fill-rule="nonzero"/></g></g></g></g></g></g><g transform="matrix(1, 0, 0, 1, 52, 121)"><g clip-path="url(#ff2b8f5a90)"><g fill="#ffffff" fill-opacity="1"><g transform="translate(0.257317, 64.598973)"><g><path d="M 14.796875 0 L 14.796875 -37.640625 L 1.5625 -37.640625 L 1.5625 -45.421875 L 36.59375 -45.421875 L 36.59375 -37.640625 L 23.359375 -37.640625 L 23.359375 0 Z M 14.796875 0 "/></g></g></g><g fill="#ffffff" fill-opacity="1"><g transform="translate(38.15378, 64.598973)"><g><path d="M 4.28125 0 L 4.28125 -45.421875 L 24.015625 -45.421875 C 26.867188 -45.421875 29.351562 -44.921875 31.46875 -43.921875 C 33.59375 -42.929688 35.238281 -41.523438 36.40625 -39.703125 C 37.570312 -37.890625 38.15625 -35.75 38.15625 -33.28125 L 38.15625 -32.515625 C 38.15625 -29.785156 37.503906 -27.578125 36.203125 -25.890625 C 34.910156 -24.203125 33.3125 -22.96875 31.40625 -22.1875 L 31.40625 -21.03125 C 33.132812 -20.9375 34.472656 -20.335938 35.421875 -19.234375 C 36.378906 -18.128906 36.859375 -16.671875 36.859375 -14.859375 L 36.859375 0 L 28.296875 0 L 28.296875 -13.625 C 28.296875 -14.664062 28.023438 -15.507812 27.484375 -16.15625 C 26.941406 -16.800781 26.039062 -17.125 24.78125 -17.125 L 12.84375 -17.125 L 12.84375 0 Z M 12.84375 -24.921875 L 23.09375 -24.921875 C 25.132812 -24.921875 26.726562 -25.472656 27.875 -26.578125 C 29.019531 -27.679688 29.59375 -29.140625 29.59375 -30.953125 L 29.59375 -31.609375 C 29.59375 -33.421875 29.03125 -34.878906 27.90625 -35.984375 C 26.78125 -37.085938 25.175781 -37.640625 23.09375 -37.640625 L 12.84375 -37.640625 Z M 12.84375 -24.921875 "/></g></g></g><g fill="#ffffff" fill-opacity="1"><g transform="translate(78.905461, 64.598973)"><g><path d="M 20.046875 0.90625 C 16.546875 0.90625 13.453125 0.28125 10.765625 -0.96875 C 8.085938 -2.226562 5.988281 -4.023438 4.46875 -6.359375 C 2.957031 -8.691406 2.203125 -11.503906 2.203125 -14.796875 L 2.203125 -16.609375 L 10.640625 -16.609375 L 10.640625 -14.796875 C 10.640625 -12.066406 11.484375 -10.019531 13.171875 -8.65625 C 14.859375 -7.300781 17.148438 -6.625 20.046875 -6.625 C 22.992188 -6.625 25.191406 -7.207031 26.640625 -8.375 C 28.085938 -9.539062 28.8125 -11.03125 28.8125 -12.84375 C 28.8125 -14.101562 28.453125 -15.117188 27.734375 -15.890625 C 27.023438 -16.671875 25.988281 -17.3125 24.625 -17.8125 C 23.257812 -18.3125 21.601562 -18.773438 19.65625 -19.203125 L 18.171875 -19.53125 C 15.054688 -20.226562 12.382812 -21.101562 10.15625 -22.15625 C 7.925781 -23.21875 6.21875 -24.613281 5.03125 -26.34375 C 3.84375 -28.070312 3.25 -30.320312 3.25 -33.09375 C 3.25 -35.863281 3.90625 -38.234375 5.21875 -40.203125 C 6.539062 -42.171875 8.398438 -43.679688 10.796875 -44.734375 C 13.203125 -45.796875 16.023438 -46.328125 19.265625 -46.328125 C 22.515625 -46.328125 25.40625 -45.773438 27.9375 -44.671875 C 30.46875 -43.566406 32.457031 -41.921875 33.90625 -39.734375 C 35.351562 -37.554688 36.078125 -34.820312 36.078125 -31.53125 L 36.078125 -29.59375 L 27.640625 -29.59375 L 27.640625 -31.53125 C 27.640625 -33.257812 27.300781 -34.65625 26.625 -35.71875 C 25.957031 -36.78125 25 -37.554688 23.75 -38.046875 C 22.5 -38.546875 21.003906 -38.796875 19.265625 -38.796875 C 16.671875 -38.796875 14.757812 -38.3125 13.53125 -37.34375 C 12.300781 -36.375 11.6875 -35.046875 11.6875 -33.359375 C 11.6875 -32.234375 11.976562 -31.28125 12.5625 -30.5 C 13.144531 -29.71875 14.019531 -29.066406 15.1875 -28.546875 C 16.351562 -28.023438 17.84375 -27.570312 19.65625 -27.1875 L 21.15625 -26.859375 C 24.394531 -26.171875 27.210938 -25.285156 29.609375 -24.203125 C 32.015625 -23.117188 33.890625 -21.691406 35.234375 -19.921875 C 36.578125 -18.148438 37.25 -15.878906 37.25 -13.109375 C 37.25 -10.335938 36.546875 -7.898438 35.140625 -5.796875 C 33.734375 -3.703125 31.742188 -2.0625 29.171875 -0.875 C 26.597656 0.3125 23.554688 0.90625 20.046875 0.90625 Z M 20.046875 0.90625 "/></g></g></g></g></g></svg>